<svg width="50" height="50" viewBox="0 0 50 50" fill="none" xmlns="http://www.w3.org/2000/svg">
  <path d="M27 8C22.5817 8 18.3851 9.68982 15.2721 12.8028C12.1592 15.9158 10.4693 20.1124 10.4693 24.5307C10.4693 28.9491 12.1592 33.1457 15.2721 36.2587C18.3851 39.3716 22.5817 41.0615 27 41.0615C31.4183 41.0615 35.6149 39.3716 38.7279 36.2587C41.8408 33.1457 43.5307 28.9491 43.5307 24.5307C43.5307 23.5307 43.4307 22.5307 43.2307 21.5615C42.0307 22.3615 40.6307 22.7615 39.2307 22.7615C36.6307 22.7615 34.2307 21.7615 32.4307 19.9615C30.6307 18.1615 29.6307 15.7615 29.6307 13.1615C29.6307 11.7615 30.0307 10.3615 30.8307 9.16154C29.5641 8.56154 28.2307 8.16154 27 8Z" stroke="#000000" stroke-width="3" stroke-linecap="round" stroke-linejoin="round" fill="none"/>
</svg>
